<?xml version="1.0" encoding="UTF-8" standalone="no"?>
<svg width="114.664" height="86.063858" viewBox="0 0 114.664 86.063858" version="1.1" id="svg2" sodipodi:docname="digital-desk-logo.svg" inkscape:version="1.3 (0e150ed6c4, 2023-07-21)"
   xmlns:inkscape="http://www.inkscape.org/namespaces/inkscape"
   xmlns:sodipodi="http://sodipodi.sourceforge.net/DTD/sodipodi-0.dtd"
   xmlns="http://www.w3.org/2000/svg"
   xmlns:svg="http://www.w3.org/2000/svg"
   xmlns:rdf="http://www.w3.org/1999/02/22-rdf-syntax-ns#"
   xmlns:cc="http://creativecommons.org/ns#"
   xmlns:dc="http://purl.org/dc/elements/1.1/">
   <sodipodi:namedview id="namedview2" pagecolor="#ffffff" bordercolor="#000000" borderopacity="0.25" inkscape:showpageshadow="2" inkscape:pageopacity="0.0" inkscape:pagecheckerboard="0" inkscape:deskcolor="#d1d1d1" inkscape:zoom="2.8648649" inkscape:cx="90.754717" inkscape:cy="20.419811" inkscape:window-width="1920" inkscape:window-height="1137" inkscape:window-x="-8" inkscape:window-y="-8" inkscape:window-maximized="1" inkscape:current-layer="Desktop" />
   <defs id="defs1">
      <style type="text/css" id="style1">         <!-- SVGs are sandboxed and cannot use the main page's fonts, hence fonts defined here -->
  @font-face {    font-family: 'NexaBold';    src:url('/fonts/NexaBold.ttf.woff') format('woff'),        url('/fonts/NexaBold.ttf.svg#NexaBold') format('svg'),        url('/fonts/NexaBold.ttf.eot'),        url('/fonts/NexaBold.ttf.eot?#iefix') format('embedded-opentype');     font-weight: normal;    font-style: normal;}  </style>
   </defs>
   <!-- MP v2 Generator: Sketch 56.2 (81672) - https://sketch.com -->
   <title id="title1">Desktop</title>
   <desc id="desc1">Created with Sketch.</desc>
   <g id="Desktop" stroke="none" stroke-width="1" fill="none" fill-rule="evenodd" transform="translate(-12.231264,-6.6320755)">
      <g id="digital-desk-text" transform="translate(11.462264,6.6320755)" fill-rule="nonzero">
         <path d="m 77.6,42.294939 c 0.18809,7.657952 -1.478979,15.247768 -4.859,22.122 -2.7747,-0.934066 -5.290552,-2.508186 -7.344,-4.595 -2.292229,-2.406011 -3.969746,-5.32983 -4.89,-8.523 1.335928,-5.377286 1.341419,-10.999114 0.016,-16.379 -0.546226,-2.229569 -1.353817,-4.386839 -2.406,-6.427 -2.566654,-5.051989 -6.88918,-8.993325 -12.156,-11.084 -1.487212,-0.598268 -3.027301,-1.055608 -4.6,-1.366 -2.232599,-0.455922 -4.506355,-0.679779 -6.785,-0.668 H 16.868 v 55.065 h 17.713 c 2.218793,0.0069 4.433286,-0.195636 6.614,-0.605 1.661386,2.776719 3.646986,5.346082 5.915,7.654 1.87017,1.911485 3.929751,3.62797 6.147,5.123 -5.935509,2.374777 -12.283832,3.546137 -18.676,3.446 H 0.769 V 0.00593935 h 33.812 c 6.387411,-0.10033304 12.730932,1.07142175 18.661,3.44699995 1.685452,0.6732054 3.315459,1.4776763 4.875,2.406 4.879322,2.8674579 9.033208,6.8194667 12.14,11.5499997 0.869643,1.300414 1.657499,2.653697 2.359,4.052 3.216126,6.47817 4.920249,13.601706 4.984,20.834 z" id="Path_4" fill="#808285" />
         <path d="M 115.433,0.00593935 V 86.057939 h -33.8 c -6.392152,0.09995 -12.740439,-1.071403 -18.676,-3.446 -1.677482,-0.679912 -3.301691,-1.484495 -4.859,-2.407 -4.940959,-2.902802 -9.143766,-6.908816 -12.28,-11.705 -0.866538,-1.307877 -1.654271,-2.66629 -2.359,-4.068 -6.515586,-13.593909 -6.464394,-29.419527 0.139,-42.971 7.343,2.639 10.634,8.445 12.078,13.491 -1.304771,5.376616 -1.299284,10.987947 0.016,16.362 0.543373,2.189855 1.351316,4.305417 2.406,6.3 2.608535,5.019968 6.98291,8.896704 12.28,10.883 1.502762,0.587469 3.056743,1.034381 4.642,1.335 2.180377,0.409367 4.394538,0.611932 6.613,0.605 h 17.7 v -55.062 h -17.7 c -2.278317,-0.01183 -4.551747,0.212026 -6.784,0.668 C 71.811717,11.065963 67.767139,6.7792016 62.975,3.4579394 68.904749,1.0824659 75.247923,-0.08928743 81.635,0.01093935 Z" id="Path_5" fill="#fb7700" />
      </g>
   </g>
   <metadata id="metadata2">
      <rdf:RDF>
         <cc:Work rdf:about="">
            <dc:title>Desktop</dc:title>
         </cc:Work>
      </rdf:RDF>
   </metadata>
</svg>
